<?xml version="1.0" encoding="utf-8"?>
<!-- Generator: Adobe Illustrator 16.0.0, SVG Export Plug-In . SVG Version: 6.00 Build 0)  -->
<!DOCTYPE svg PUBLIC "-//W3C//DTD SVG 1.1//EN" "http://www.w3.org/Graphics/SVG/1.1/DTD/svg11.dtd">
<svg version="1.1" id="Layer_1" xmlns="http://www.w3.org/2000/svg" xmlns:xlink="http://www.w3.org/1999/xlink" x="0px" y="0px"
	 width="463.477px" height="95.995px" viewBox="0 0 463.477 95.995" enable-background="new 0 0 463.477 95.995"
	 xml:space="preserve">
<g>
	<g>
		<g>
			<path fill="#E8CB4E" d="M354.231,55.599c0.031-0.526,0.287-0.981,0.767-1.359c0.478-0.379,1.015-0.585,1.607-0.618
				c0.594-0.032,1.129,0.148,1.606,0.544c0.479,0.396,0.733,1.088,0.768,2.078c0,0.362-0.041,0.725-0.123,1.088
				c-0.083,0.363-0.232,0.676-0.445,0.939c-0.215,0.264-0.495,0.47-0.842,0.617c-0.347,0.149-0.783,0.174-1.312,0.074
				c-0.264-0.066-0.52-0.231-0.766-0.494c-0.248-0.265-0.463-0.562-0.645-0.891s-0.33-0.676-0.444-1.039
				C354.288,56.177,354.231,55.864,354.231,55.599z"/>
			<path fill="#E8CB4E" d="M362.837,46.103c0-1.188,0.165-2.538,0.495-4.056c0.329-1.517,0.841-2.959,1.533-4.327
				c0.691-1.369,1.583-2.522,2.671-3.463c1.088-0.939,2.406-1.41,3.957-1.41c0.494-0.164,1.07-0.188,1.729-0.073
				c0.66,0.116,1.311,0.313,1.954,0.594s1.221,0.635,1.731,1.063c0.51,0.429,0.873,0.89,1.088,1.385
				c0.214,0.495,0.214,1.006,0,1.533c-0.215,0.527-0.734,1.022-1.559,1.483c-0.396,0-0.742-0.106-1.038-0.321
				c-0.298-0.215-0.586-0.453-0.866-0.718c-0.28-0.264-0.576-0.502-0.891-0.717c-0.313-0.214-0.685-0.322-1.112-0.322
				c-1.221,0.067-2.259,0.513-3.116,1.336c-0.857,0.825-1.533,1.839-2.027,3.042c-0.494,1.205-0.791,2.506-0.891,3.908
				c-0.099,1.401,0.017,2.713,0.347,3.932c0.329,1.222,0.873,2.269,1.632,3.142c0.759,0.875,1.765,1.377,3.019,1.509
				c0.955,0,1.912-0.173,2.868-0.52c0.956-0.348,1.895-0.774,2.818-1.286c0.923-0.511,1.797-1.046,2.621-1.607
				c0.824-0.561,1.583-1.055,2.275-1.483c0,0.066,0.017,0.198,0.05,0.396c0.032,0.197,0.058,0.404,0.074,0.618
				c0.017,0.215,0.032,0.429,0.05,0.644c0.016,0.215,0.024,0.338,0.024,0.371c-0.66,1.912-1.602,3.438-2.819,4.574
				c-1.221,1.139-2.556,1.922-4.006,2.35c-1.451,0.431-2.937,0.494-4.452,0.197c-1.518-0.296-2.895-0.931-4.13-1.904
				c-1.236-0.972-2.234-2.281-2.992-3.932S362.771,48.411,362.837,46.103z"/>
			<path fill="#E8CB4E" d="M382.571,49.269c0-1.582,0.207-3.265,0.619-5.045c0.411-1.781,1.055-3.42,1.929-4.922
				c0.874-1.5,1.979-2.744,3.313-3.733c1.336-0.989,2.927-1.483,4.773-1.483c1.516,0,2.795,0.255,3.833,0.768
				c1.038,0.511,1.862,1.212,2.474,2.102c0.609,0.891,1.046,1.946,1.312,3.165c0.264,1.221,0.396,2.539,0.396,3.957
				c0,1.582-0.297,3.231-0.891,4.946c-0.593,1.715-1.409,3.289-2.448,4.724s-2.283,2.621-3.733,3.56
				c-1.451,0.94-3.018,1.41-4.699,1.41c-1.285,0-2.373-0.289-3.265-0.865c-0.891-0.576-1.6-1.327-2.127-2.25
				c-0.526-0.924-0.906-1.945-1.137-3.067C382.686,51.412,382.571,50.324,382.571,49.269z M385.885,48.724
				c0,0.76,0.05,1.469,0.148,2.127c0.1,0.66,0.288,1.229,0.567,1.707c0.28,0.479,0.677,0.856,1.188,1.138
				c0.511,0.28,1.195,0.421,2.053,0.421c1.219,0,2.324-0.305,3.315-0.916c0.988-0.609,1.837-1.393,2.547-2.35
				c0.709-0.955,1.252-2.02,1.632-3.189c0.379-1.17,0.569-2.3,0.569-3.389c-0.396-2.241-0.975-3.873-1.731-4.896
				c-0.759-1.021-1.601-1.59-2.522-1.706c-0.925-0.114-1.863,0.148-2.819,0.792c-0.957,0.644-1.814,1.501-2.572,2.572
				c-0.759,1.072-1.368,2.292-1.83,3.66C385.967,46.062,385.787,47.406,385.885,48.724z"/>
			<path fill="#E8CB4E" d="M431.835,58.716c-1.122-0.33-1.971-0.824-2.548-1.483s-0.973-1.435-1.186-2.324
				c-0.216-0.892-0.289-1.854-0.224-2.894s0.189-2.077,0.371-3.116c0.18-1.039,0.379-2.054,0.594-3.041
				c0.214-0.99,0.354-1.896,0.421-2.722c-0.595-0.229-1.212-0.132-1.855,0.297c-0.643,0.43-1.311,1.056-2.002,1.88
				c-0.693,0.823-1.419,1.78-2.177,2.868c-0.76,1.089-1.533,2.177-2.325,3.265c-0.791,1.088-1.601,2.103-2.424,3.043
				c-0.824,0.938-1.664,1.674-2.522,2.2c-0.463,0.033-0.834-0.106-1.113-0.422c-0.279-0.312-0.493-0.684-0.643-1.111
				c-0.148-0.43-0.24-0.823-0.271-1.188c-0.033-0.362-0.033-0.576,0-0.644c0-0.89,0.073-1.772,0.223-2.646
				c0.147-0.875,0.321-1.748,0.52-2.623c0.198-0.873,0.37-1.746,0.52-2.621c0.147-0.873,0.223-1.771,0.223-2.695
				c-0.363-0.791-0.783-0.955-1.261-0.494c-0.479,0.463-1.015,1.245-1.607,2.35c-0.594,1.105-1.212,2.407-1.854,3.907
				c-0.644,1.501-1.295,2.901-1.954,4.204s-1.312,2.366-1.954,3.189c-0.644,0.824-1.244,1.121-1.806,0.891
				c-0.594,0-1.006-0.189-1.235-0.568c-0.231-0.379-0.347-0.882-0.347-1.509l3.312-15.876c-0.065-0.363-0.098-0.773-0.098-1.236
				c0-0.461,0.063-0.898,0.197-1.312c0.131-0.412,0.346-0.758,0.643-1.039c0.297-0.28,0.725-0.42,1.286-0.42
				c0.759,0,1.268,0.272,1.533,0.815c0.264,0.545,0.395,1.188,0.395,1.93s-0.082,1.484-0.247,2.226
				c-0.165,0.742-0.296,1.296-0.395,1.657c0.494-0.396,0.973-0.932,1.435-1.607c0.461-0.676,0.947-1.344,1.459-2.004
				c0.511-0.658,1.064-1.228,1.657-1.705c0.594-0.479,1.268-0.718,2.027-0.718c1.253,0.562,2.044,1.335,2.374,2.325
				c0.329,0.989,0.444,2.078,0.347,3.266c-0.1,1.188-0.272,2.397-0.52,3.635c-0.248,1.235-0.306,2.383-0.175,3.438
				c0.595-0.494,1.188-1.129,1.781-1.904c0.594-0.772,1.203-1.606,1.83-2.496c0.626-0.892,1.27-1.788,1.929-2.696
				c0.659-0.906,1.353-1.724,2.077-2.448c0.726-0.725,1.5-1.318,2.325-1.781c0.823-0.461,1.714-0.691,2.671-0.691
				c0.922,0.691,1.525,1.509,1.805,2.447c0.28,0.94,0.379,1.955,0.297,3.043s-0.264,2.218-0.544,3.388
				c-0.279,1.172-0.527,2.334-0.74,3.487c-0.216,1.154-0.314,2.268-0.298,3.339s0.272,2.053,0.767,2.941
				c0.594,0.132,1.244,0,1.954-0.396c0.709-0.396,1.409-0.865,2.103-1.41c0.691-0.543,1.353-1.055,1.979-1.533
				c0.625-0.477,1.152-0.717,1.582-0.717c0.297,0,0.545,0.107,0.741,0.322c0.197,0.215,0.298,0.469,0.298,0.766
				c0,0.693-0.363,1.443-1.089,2.251c-0.727,0.808-1.582,1.565-2.571,2.274c-0.989,0.71-2.013,1.295-3.066,1.756
				C433.4,58.485,432.526,58.716,431.835,58.716z"/>
		</g>
	</g>
	<path fill="#E8CB4E" d="M347.713,63.987c-2.752-0.895-7.645,7.963-140.353,8.633c-81.407,0.414-180.722-0.156-182.777,2.328
		c-2.199,2.359-1.579,4.082,1.296,5.344c10.254,4.506,150.485-5.152,192.457-4.246C337.091,73.95,352.639,65.583,347.713,63.987z"/>
	<g>
		<path fill="#1C5880" d="M44.791,38.507c1.428-3.061,2.142-4.844,2.549-6.324c0.51-1.58,1.989-2.65,3.621-2.65
			c1.224,0,2.04,1.273,1.428,2.295c-0.663,1.07-1.275,2.09-2.04,3.467c-2.499,4.438-2.805,4.998-6.731,12.953l-1.53,3.059
			c-0.816,1.582-1.275,2.551-1.683,3.418c-0.714,1.58-2.448,2.396-4.232,2.396c-1.632,0-3.06-1.174-3.264-2.754
			c-0.153-1.326-0.357-2.652-0.561-3.979l-1.428-8.516c-0.51-2.957-0.51-3.059-1.224-6.477c-0.306-1.631-0.561-2.701-0.816-3.518
			c-0.408-1.225,0.663-2.346,1.938-2.295c0.204,0,0.408,0,0.612,0s0.408,0,0.612,0c1.428-0.051,2.55,1.172,2.601,2.652
			c0.051,1.02,0.153,2.498,0.408,4.691c0.969,7.955,1.428,10.555,2.499,16.369L44.791,38.507z"/>
		<path fill="#1C5880" d="M74.359,29.583c1.224-0.408,2.244,0.918,1.938,2.141c-0.408,1.684-0.969,4.285-1.836,9.027L73.543,45.8
			c-0.867,4.895-1.122,7.598-1.122,9.229c0,1.225-1.173,2.092-2.397,2.143c-1.275,0.051-2.346-0.969-2.244-2.193
			c0.204-2.09,0.918-5.863,0.918-6.477c-2.346,3.111-5.661,9.23-10.352,9.23c-3.723,0-7.445-2.703-7.445-8.516
			c0-2.447,0.867-11.934,8.465-17.543c1.224-0.918,4.13-2.855,8.363-2.855c2.294,0,3.824,0.561,5.456,1.174L74.359,29.583z
			 M71.197,32.847c-0.969-0.307-2.396-0.816-4.334-0.816c-8.567,0-10.862,11.016-10.862,15.299c0,3.518,1.275,6.119,4.589,6.119
			c1.887,0,4.131-0.867,5.916-3.467c1.479-2.143,2.448-5.1,3.366-10.047L71.197,32.847z"/>
		<path fill="#1C5880" d="M79.909,38.251c0.51-2.752,0.663-4.486,0.612-5.66c-0.102-1.223,0.459-2.549,1.683-2.701
			c0.51-0.053,0.969-0.104,1.377-0.154c1.275-0.254,2.499,0.664,2.244,1.938c-0.204,0.969-1.071,4.539-1.479,6.682
			c1.173-1.887,3.009-6.172,5.661-7.955c1.071-0.715,1.989-1.123,2.753-1.377c1.224-0.357,2.091,0.969,1.683,2.141
			c-0.51,1.479-2.04,2.295-3.57,2.652c-2.396,0.561-5.303,2.703-6.731,7.803c-0.765,2.701-1.938,9.434-2.192,12.799
			c-0.153,1.479-1.377,2.652-2.856,2.602c-0.102,0-0.153,0-0.255,0c-1.275,0-2.397-1.123-2.04-2.396
			c0.255-0.867,0.51-1.785,0.612-2.551L79.909,38.251z"/>
		<path fill="#1C5880" d="M114.983,29.583c1.224-0.408,2.244,0.918,1.938,2.141c-0.408,1.684-0.969,4.285-1.836,9.027l-0.918,5.049
			c-0.867,4.895-1.122,7.598-1.122,9.229c0,1.225-1.173,2.092-2.397,2.143c-1.275,0.051-2.346-0.969-2.244-2.193
			c0.204-2.09,0.918-5.863,0.918-6.477c-2.346,3.111-5.661,9.23-10.352,9.23c-3.723,0-7.445-2.703-7.445-8.516
			c0-2.447,0.867-11.934,8.465-17.543c1.224-0.918,4.13-2.855,8.363-2.855c2.294,0,3.824,0.561,5.456,1.174L114.983,29.583z
			 M111.821,32.847c-0.969-0.307-2.396-0.816-4.334-0.816c-8.567,0-10.862,11.016-10.862,15.299c0,3.518,1.275,6.119,4.589,6.119
			c1.887,0,4.131-0.867,5.916-3.467c1.479-2.143,2.448-5.1,3.366-10.047L111.821,32.847z"/>
		<path fill="#1C5880" d="M120.329,39.067c0.357-2.09,0.765-4.691,0.765-6.629c0-0.102,0-0.203,0-0.307
			c-0.051-1.172,0.357-2.498,1.53-2.6c0.612-0.051,1.173-0.154,1.734-0.256c1.224-0.254,2.346,0.766,2.091,1.988
			c-0.204,1.021-0.867,4.336-1.173,6.068c0.918-1.375,2.193-4.945,3.671-6.119c2.04-1.58,4.539-2.549,7.139-2.549
			c2.805,0,6.579,1.121,6.579,5.303c0,0.918-0.153,1.99-0.612,4.438l-1.275,7.139c-0.408,2.193-1.122,6.324-1.275,8.924
			c-0.102,1.479-1.377,2.551-2.856,2.551c-0.153,0-0.306,0-0.459,0c-1.224,0.051-2.192-1.072-1.887-2.244
			c0.459-1.582,1.02-4.08,1.887-9.078l0.612-3.416c1.224-6.885,1.581-9.586-3.315-9.586c-2.396,0-5.1,1.58-6.578,3.518
			c-1.887,2.447-2.448,5.865-2.907,8.67l-0.918,5.965c-0.255,1.582-0.357,2.754-0.408,3.723c-0.102,1.43-1.428,2.398-2.855,2.398
			c-0.153,0-0.306,0-0.408,0c-1.275,0.051-2.346-1.021-1.989-2.193c0.561-1.887,0.918-3.723,1.275-6.119L120.329,39.067z"/>
		<path fill="#1C5880" d="M166.267,45.034c-0.51,3.061-1.224,6.783-1.224,9.535c-0.051,1.326-0.918,2.551-2.244,2.602
			c-1.479,0-2.754-1.172-2.55-2.652c0.102-0.814,0.612-4.182,0.918-5.66c-1.989,2.703-5.048,8.873-9.689,8.873
			c-4.08,0-7.598-2.855-7.598-8.668c0-1.428,0.408-8.619,5.15-14.33c2.855-3.469,7.088-5.814,11.525-5.814
			c1.581,0,2.601,0.307,3.825,0.664c0.51-2.703,0.765-4.283,0.663-5.406c-0.051-1.326,0.612-2.703,1.887-2.855
			c0.408-0.051,0.765-0.102,1.071-0.203c1.275-0.256,2.549,0.662,2.294,1.887c-0.306,1.326-0.612,3.109-1.275,6.629L166.267,45.034z
			 M148.979,47.38c0,3.57,1.632,6.221,4.488,6.221c1.836,0,4.437-1.172,6.272-4.793c1.479-2.957,2.091-6.018,4.08-16.062
			c-1.224-0.357-2.295-0.664-3.774-0.664C151.121,32.081,148.979,44.167,148.979,47.38z"/>
		<path fill="#1C5880" d="M192.928,29.583c1.224-0.408,2.244,0.918,1.938,2.141c-0.408,1.684-0.969,4.285-1.836,9.027l-0.918,5.049
			c-0.867,4.895-1.122,7.598-1.122,9.229c0,1.225-1.173,2.092-2.397,2.143c-1.275,0.051-2.346-0.969-2.244-2.193
			c0.204-2.09,0.918-5.863,0.918-6.477c-2.346,3.111-5.661,9.23-10.352,9.23c-3.723,0-7.445-2.703-7.445-8.516
			c0-2.447,0.867-11.934,8.465-17.543c1.224-0.918,4.13-2.855,8.363-2.855c2.294,0,3.824,0.561,5.456,1.174L192.928,29.583z
			 M189.766,32.847c-0.969-0.307-2.396-0.816-4.334-0.816c-8.567,0-10.862,11.016-10.862,15.299c0,3.518,1.275,6.119,4.589,6.119
			c1.887,0,4.131-0.867,5.916-3.467c1.479-2.143,2.448-5.1,3.366-10.047L189.766,32.847z"/>
		<path fill="#95CDE4" d="M204.941,44.269c-1.428-0.867-4.131-2.498-4.131-5.965c0-2.908,1.683-5.457,4.028-7.242
			c2.601-1.938,6.171-2.295,8.108-2.295c1.326,0,2.295,0.102,3.264,0.357c1.275,0.254,1.836,1.682,1.326,2.855
			c-0.51,1.07-1.836,1.326-2.856,0.816c-0.765-0.357-1.733-0.613-2.957-0.613c-3.876,0-6.018,2.5-6.018,4.539
			c0,2.244,1.887,3.314,3.824,4.387l2.602,1.58c1.428,0.867,3.62,2.244,3.62,5.457c0,2.295-1.02,5.252-3.927,7.395
			c-3.06,2.191-6.425,2.346-8.567,2.346c-1.479,0-2.549-0.104-3.62-0.357c-1.479-0.307-2.192-1.887-1.733-3.314
			c0.356-1.123,1.631-1.428,2.651-0.918c0.969,0.459,2.295,0.814,4.386,0.814c4.028,0,6.17-2.242,6.17-4.334
			c0-1.785-1.428-2.754-3.009-3.672L204.941,44.269z"/>
		<path fill="#95CDE4" d="M228.849,54.569c2.142,0,3.773-0.51,4.997-1.02c0.663-0.305,1.326,0.408,1.122,1.174
			c-0.356,1.223-1.224,2.396-2.499,2.703c-1.274,0.254-2.855,0.51-4.793,0.51c-8.108-0.256-10.098-4.947-10.199-11.322
			c0-5.66,2.651-10.146,4.283-12.188c3.519-4.334,8.108-5.762,11.423-5.762c4.794,0,7.241,2.652,7.241,6.119
			c0,1.633-0.611,3.621-1.632,5.15c-1.376,2.143-3.264,3.365-4.896,4.182c-3.62,1.734-7.037,1.836-11.116,1.988
			C222.78,46.104,221.046,54.622,228.849,54.569z M226.604,34.581c-2.295,2.6-3.314,7.598-3.672,10.352
			c3.672-0.051,7.241-2.092,10.098-4.795c1.428-1.375,2.447-3.16,2.447-5.098c0-2.295-1.632-3.367-3.416-3.367
			C230.99,31.673,228.798,32.03,226.604,34.581z"/>
		<path fill="#95CDE4" d="M260.762,52.989c-1.325,7.344-2.294,13.004-9.434,15.656c-2.55,0.969-5.66,1.377-8.414,1.377
			c-1.53,0-2.703-0.104-3.723-0.307c-1.173-0.205-1.734-1.58-1.173-2.652c0.561-1.121,1.836-1.631,3.009-1.223
			c0.866,0.254,1.938,0.459,3.416,0.459c2.907,0,5.813-0.816,7.803-2.959c2.447-2.295,3.468-7.496,4.845-14.891
			c-1.377,2.092-4.794,9.281-9.791,9.281c-2.856,0-5.1-1.377-6.323-3.365c-1.225-1.938-1.326-4.232-1.326-5.406
			c0-8.209,5.711-20.143,16.573-20.143c2.702,0,4.386,0.816,5.763,1.377c0.407-0.152,0.765-0.254,1.07-0.408
			c1.122-0.408,2.091,0.816,1.785,2.041c-0.459,1.58-0.918,3.619-1.683,7.955L260.762,52.989z M255.459,32.081
			c-8.976,0-10.761,11.066-10.761,15.096c0,1.223,0.153,2.957,0.918,4.182c0.816,1.324,2.091,2.039,3.672,2.039
			c2.396,0,4.487-1.58,5.864-3.621c1.938-2.957,2.754-6.936,4.691-16.676C258.978,32.694,257.601,32.081,255.459,32.081z"/>
		<path fill="#95CDE4" d="M271.666,45.085c-0.561,2.602-0.765,3.773-0.765,4.896c0,1.938,0.918,3.619,3.723,3.619
			c1.07,0,4.334-0.254,6.527-3.926c1.274-2.193,2.396-6.629,3.161-10.658c0.562-3.059,0.816-4.998,0.867-6.271
			c0.051-1.48,0.918-2.855,2.346-3.111c0.408-0.051,0.816-0.152,1.173-0.203c1.173-0.205,2.295,0.814,1.938,1.938
			c-0.766,2.701-1.429,5.609-2.295,10.605c-1.275,7.09-1.734,10.506-1.734,12.443c0,0.152,0,0.256,0,0.408
			c0.051,1.326-1.07,2.396-2.396,2.396c-1.479,0-2.651-1.223-2.55-2.652c0.051-1.223,0.51-4.385,0.714-5.506
			c-0.815,1.223-2.295,5.354-4.538,6.936c-2.346,1.631-4.998,1.783-5.712,1.783c-3.365,0-6.323-1.783-6.323-5.506
			c0-0.715,0.102-1.43,0.408-3.316l2.55-13.564c0.204-1.02,0.306-1.836,0.356-2.447c0.103-1.377,0.663-2.906,2.04-3.111
			c0.408-0.051,0.815-0.152,1.224-0.203c1.326-0.307,2.448,0.918,2.091,2.244c-0.611,2.396-0.815,3.314-1.326,5.711L271.666,45.085z
			"/>
		<path fill="#95CDE4" d="M294.248,38.251c0.51-2.752,0.663-4.486,0.612-5.66c-0.103-1.223,0.459-2.549,1.683-2.701
			c0.51-0.053,0.969-0.104,1.377-0.154c1.274-0.254,2.498,0.664,2.243,1.938c-0.203,0.969-1.07,4.539-1.479,6.682
			c1.173-1.887,3.009-6.172,5.66-7.955c1.071-0.715,1.989-1.123,2.754-1.377c1.224-0.357,2.091,0.969,1.683,2.141
			c-0.51,1.479-2.039,2.295-3.569,2.652c-2.396,0.561-5.304,2.703-6.731,7.803c-0.765,2.701-1.938,9.434-2.192,12.799
			c-0.153,1.479-1.377,2.652-2.855,2.602c-0.103,0-0.153,0-0.256,0c-1.274,0-2.396-1.123-2.039-2.396
			c0.255-0.867,0.51-1.785,0.611-2.551L294.248,38.251z"/>
		<path fill="#95CDE4" d="M329.629,31.368c2.396,2.346,2.498,5.506,2.498,7.037c0,7.955-4.896,19.428-15.91,19.428
			c-2.651,0-5.253-0.764-7.19-2.549c-1.122-1.02-2.906-3.061-2.906-7.904c0-8.211,5.201-18.613,16.012-18.613
			C325.345,28.767,327.945,29.634,329.629,31.368z M325.243,33.407c-0.612-0.561-1.836-1.377-3.876-1.377
			c-8.159,0-10.147,11.934-10.147,15.961c0,4.846,2.55,6.631,5.456,6.631c9.026,0,10.25-13.973,10.25-16.422
			C326.926,37.028,326.875,34.937,325.243,33.407z"/>
		<path fill="#95CDE4" d="M337.678,44.269c-1.428-0.867-4.131-2.498-4.131-5.965c0-2.908,1.683-5.457,4.028-7.242
			c2.601-1.938,6.171-2.295,8.108-2.295c1.326,0,2.295,0.102,3.264,0.357c1.275,0.254,1.836,1.682,1.326,2.855
			c-0.51,1.07-1.836,1.326-2.856,0.816c-0.765-0.357-1.733-0.613-2.957-0.613c-3.876,0-6.018,2.5-6.018,4.539
			c0,2.244,1.887,3.314,3.824,4.387l2.602,1.58c1.428,0.867,3.62,2.244,3.62,5.457c0,2.295-1.02,5.252-3.927,7.395
			c-3.06,2.191-6.425,2.346-8.567,2.346c-1.479,0-2.549-0.104-3.62-0.357c-1.479-0.307-2.192-1.887-1.733-3.314
			c0.356-1.123,1.631-1.428,2.651-0.918c0.969,0.459,2.295,0.814,4.386,0.814c4.028,0,6.17-2.242,6.17-4.334
			c0-1.785-1.428-2.754-3.009-3.672L337.678,44.269z"/>
	</g>
</g>
</svg>
