<?xml version="1.0" encoding="utf-8"?>
<!-- Generator: Adobe Illustrator 16.0.0, SVG Export Plug-In . SVG Version: 6.00 Build 0)  -->
<!DOCTYPE svg PUBLIC "-//W3C//DTD SVG 1.1//EN" "http://www.w3.org/Graphics/SVG/1.1/DTD/svg11.dtd">
<svg version="1.1" id="Layer_1" xmlns="http://www.w3.org/2000/svg" xmlns:xlink="http://www.w3.org/1999/xlink" x="0px" y="0px"
	 width="275.986px" height="119px" viewBox="0 0 275.986 119" enable-background="new 0 0 275.986 119" xml:space="preserve">
<g>
	<path fill="#E8CB4E" d="M247.532,59.966c-1.863-0.895-5.177,7.963-95.04,8.633c-55.125,0.414-122.376-0.156-123.77,2.328
		c-1.488,2.359-1.068,4.082,0.879,5.344c6.943,4.506,101.901-5.152,130.322-4.246C240.34,69.929,250.868,61.562,247.532,59.966z"/>
	<g>
		<path fill="#1C5880" d="M54.828,32.833c1.763-3.778,2.644-5.98,3.147-7.809c0.629-1.951,2.455-3.272,4.471-3.272
			c1.511,0,2.518,1.572,1.763,2.834c-0.818,1.321-1.574,2.58-2.519,4.28c-3.086,5.479-3.463,6.172-8.312,15.994l-1.889,3.776
			c-1.008,1.954-1.574,3.149-2.079,4.221c-0.88,1.951-3.021,2.959-5.226,2.959c-2.014,0-3.777-1.449-4.03-3.4
			c-0.188-1.638-0.439-3.275-0.691-4.913L37.7,36.989c-0.629-3.651-0.629-3.777-1.512-7.998c-0.377-2.014-0.692-3.335-1.007-4.343
			c-0.503-1.513,0.819-2.896,2.394-2.834c0.251,0,0.503,0,0.755,0s0.504,0,0.755,0c1.763-0.062,3.149,1.447,3.212,3.275
			c0.063,1.259,0.188,3.085,0.505,5.793c1.195,9.822,1.763,13.032,3.084,20.212L54.828,32.833z"/>
		<path fill="#1C5880" d="M91.337,21.814c1.511-0.504,2.771,1.134,2.394,2.644c-0.504,2.078-1.196,5.291-2.268,11.146l-1.133,6.234
			c-1.071,6.043-1.386,9.381-1.386,11.395c0,1.512-1.448,2.583-2.96,2.646c-1.574,0.063-2.896-1.196-2.771-2.708
			c0.253-2.58,1.134-7.24,1.134-7.997c-2.896,3.842-6.99,11.397-12.782,11.397c-4.597,0-9.193-3.338-9.193-10.515
			c0-3.022,1.07-14.735,10.453-21.661c1.511-1.134,5.1-3.526,10.326-3.526c2.833,0,4.723,0.692,6.737,1.45L91.337,21.814z
			 M87.434,25.845c-1.196-0.379-2.959-1.008-5.353-1.008c-10.579,0-13.412,13.602-13.412,18.89c0,4.344,1.574,7.556,5.667,7.556
			c2.329,0,5.101-1.07,7.305-4.28c1.826-2.646,3.021-6.297,4.155-12.405L87.434,25.845z"/>
		<path fill="#1C5880" d="M98.189,32.518c0.629-3.397,0.818-5.54,0.755-6.989c-0.126-1.51,0.566-3.146,2.079-3.335
			c0.629-0.065,1.196-0.128,1.7-0.19c1.574-0.313,3.084,0.82,2.771,2.393c-0.253,1.195-1.322,5.604-1.827,8.25
			c1.448-2.33,3.716-7.621,6.99-9.822c1.322-0.883,2.455-1.387,3.399-1.701c1.511-0.441,2.582,1.197,2.078,2.644
			c-0.63,1.825-2.519,2.834-4.407,3.275c-2.96,0.692-6.549,3.337-8.312,9.634c-0.943,3.336-2.392,11.648-2.707,15.804
			c-0.189,1.825-1.7,3.275-3.526,3.212c-0.126,0-0.188,0-0.313,0c-1.575,0-2.961-1.387-2.521-2.959
			c0.316-1.07,0.631-2.204,0.757-3.149L98.189,32.518z"/>
		<path fill="#1C5880" d="M141.498,21.814c1.511-0.504,2.771,1.134,2.394,2.644c-0.505,2.078-1.196,5.291-2.268,11.146l-1.133,6.234
			c-1.071,6.043-1.386,9.381-1.386,11.395c0,1.512-1.448,2.583-2.961,2.646c-1.573,0.063-2.896-1.196-2.77-2.708
			c0.252-2.58,1.134-7.24,1.134-7.997c-2.896,3.842-6.99,11.397-12.782,11.397c-4.596,0-9.192-3.338-9.192-10.515
			c0-3.022,1.07-14.735,10.452-21.661c1.511-1.134,5.099-3.526,10.326-3.526c2.832,0,4.722,0.692,6.737,1.45L141.498,21.814z
			 M137.595,25.845c-1.196-0.379-2.959-1.008-5.353-1.008c-10.578,0-13.411,13.602-13.411,18.89c0,4.344,1.573,7.556,5.666,7.556
			c2.33,0,5.101-1.07,7.305-4.28c1.825-2.646,3.021-6.297,4.155-12.405L137.595,25.845z"/>
		<path fill="#1C5880" d="M148.099,33.525c0.439-2.58,0.943-5.792,0.943-8.185c0-0.126,0-0.251,0-0.379
			c-0.062-1.447,0.441-3.084,1.89-3.21c0.756-0.062,1.448-0.19,2.141-0.315c1.512-0.314,2.896,0.945,2.583,2.455
			c-0.253,1.261-1.071,5.354-1.449,7.492c1.133-1.697,2.708-6.105,4.533-7.556c2.52-1.95,5.605-3.147,8.814-3.147
			c3.465,0,8.124,1.385,8.124,6.548c0,1.134-0.189,2.458-0.756,5.479l-1.574,8.814c-0.504,2.709-1.385,7.809-1.573,11.02
			c-0.127,1.825-1.7,3.148-3.527,3.148c-0.188,0-0.377,0-0.566,0c-1.511,0.063-2.707-1.323-2.329-2.771
			c0.566-1.953,1.26-5.038,2.329-11.209l0.756-4.218c1.511-8.502,1.951-11.837-4.092-11.837c-2.96,0-6.297,1.951-8.123,4.344
			c-2.329,3.021-3.022,7.242-3.59,10.705l-1.133,7.365c-0.315,1.953-0.44,3.4-0.505,4.597c-0.125,1.766-1.763,2.961-3.525,2.961
			c-0.189,0-0.377,0-0.504,0c-1.573,0.062-2.896-1.261-2.456-2.708c0.693-2.329,1.133-4.597,1.574-7.556L148.099,33.525z"/>
		<path fill="#1C5880" d="M204.821,40.894c-0.631,3.778-1.513,8.375-1.513,11.773c-0.062,1.637-1.133,3.149-2.771,3.212
			c-1.825,0-3.4-1.446-3.147-3.274c0.126-1.006,0.755-5.164,1.134-6.989c-2.456,3.338-6.234,10.956-11.964,10.956
			c-5.038,0-9.382-3.525-9.382-10.703c0-1.763,0.503-10.643,6.359-17.693c3.526-4.283,8.752-7.18,14.23-7.18
			c1.952,0,3.211,0.378,4.723,0.819c0.63-3.337,0.943-5.288,0.817-6.675c-0.062-1.638,0.755-3.338,2.329-3.526
			c0.504-0.062,0.945-0.125,1.324-0.251c1.572-0.315,3.148,0.818,2.832,2.33c-0.377,1.638-0.756,3.84-1.574,8.186L204.821,40.894z
			 M183.475,43.79c0,4.408,2.015,7.681,5.541,7.681c2.267,0,5.479-1.447,7.746-5.918c1.825-3.651,2.58-7.431,5.036-19.833
			c-1.511-0.441-2.833-0.82-4.66-0.82C186.119,24.899,183.475,39.822,183.475,43.79z"/>
		<path fill="#1C5880" d="M237.74,21.814c1.512-0.504,2.771,1.134,2.395,2.644c-0.504,2.078-1.197,5.291-2.268,11.146l-1.133,6.234
			c-1.07,6.043-1.388,9.381-1.388,11.395c0,1.512-1.447,2.583-2.959,2.646c-1.574,0.063-2.896-1.196-2.771-2.708
			c0.254-2.58,1.135-7.24,1.135-7.997c-2.896,3.842-6.99,11.397-12.781,11.397c-4.598,0-9.193-3.338-9.193-10.515
			c0-3.022,1.07-14.735,10.453-21.661c1.51-1.134,5.1-3.526,10.324-3.526c2.834,0,4.723,0.692,6.739,1.45L237.74,21.814z
			 M233.837,25.845c-1.197-0.379-2.959-1.008-5.354-1.008c-10.578,0-13.41,13.602-13.41,18.89c0,4.344,1.572,7.556,5.666,7.556
			c2.328,0,5.102-1.07,7.305-4.28c1.826-2.646,3.023-6.297,4.156-12.405L233.837,25.845z"/>
	</g>
	<g>
		<path fill="#95CDE3" d="M136.904,90.29c-1.014-0.615-2.932-1.773-2.932-4.234c0-2.064,1.194-3.873,2.859-5.141
			c1.846-1.375,4.38-1.629,5.756-1.629c0.941,0,1.629,0.072,2.317,0.254c0.905,0.18,1.303,1.193,0.941,2.026
			c-0.362,0.76-1.305,0.941-2.028,0.579c-0.543-0.253-1.23-0.435-2.099-0.435c-2.752,0-4.271,1.774-4.271,3.222
			c0,1.594,1.339,2.354,2.715,3.114l1.847,1.122c1.013,0.615,2.568,1.592,2.568,3.873c0,1.629-0.724,3.729-2.786,5.249
			c-2.173,1.556-4.562,1.665-6.083,1.665c-1.049,0-1.809-0.073-2.568-0.254c-1.05-0.218-1.557-1.339-1.231-2.353
			c0.254-0.798,1.158-1.014,1.883-0.651c0.688,0.326,1.629,0.578,3.112,0.578c2.86,0,4.38-1.592,4.38-3.076
			c0-1.268-1.014-1.955-2.135-2.607L136.904,90.29z"/>
		<path fill="#95CDE3" d="M153.875,97.603c1.521,0,2.679-0.362,3.548-0.725c0.47-0.216,0.941,0.29,0.796,0.834
			c-0.252,0.867-0.868,1.701-1.773,1.918c-0.905,0.181-2.026,0.362-3.402,0.362c-5.756-0.182-7.168-3.512-7.239-8.037
			c0-4.019,1.881-7.202,3.04-8.651c2.497-3.076,5.755-4.09,8.107-4.09c3.404,0,5.141,1.883,5.141,4.344
			c0,1.159-0.434,2.57-1.158,3.656c-0.977,1.521-2.317,2.389-3.475,2.968c-2.57,1.231-4.995,1.304-7.892,1.411
			C149.567,91.593,148.336,97.64,153.875,97.603z M152.282,83.413c-1.629,1.846-2.353,5.394-2.606,7.348
			c2.606-0.035,5.141-1.484,7.168-3.403c1.013-0.976,1.736-2.243,1.736-3.618c0-1.629-1.157-2.391-2.425-2.391
			C155.396,81.349,153.839,81.603,152.282,83.413z"/>
		<path fill="#95CDE3" d="M176.529,96.48c-0.941,5.213-1.629,9.23-6.696,11.113c-1.812,0.688-4.019,0.978-5.973,0.978
			c-1.087,0-1.919-0.073-2.643-0.218c-0.833-0.146-1.231-1.122-0.833-1.883c0.397-0.796,1.303-1.157,2.136-0.868
			c0.614,0.181,1.376,0.326,2.425,0.326c2.063,0,4.126-0.58,5.539-2.101c1.737-1.629,2.461-5.321,3.438-10.569
			c-0.978,1.484-3.402,6.588-6.95,6.588c-2.027,0-3.62-0.978-4.488-2.389c-0.869-1.375-0.941-3.005-0.941-3.838
			c0-5.827,4.055-14.299,11.764-14.299c1.919,0,3.114,0.58,4.092,0.979c0.288-0.108,0.542-0.181,0.76-0.29
			c0.796-0.29,1.483,0.579,1.268,1.448c-0.326,1.122-0.652,2.569-1.195,5.647L176.529,96.48z M172.765,81.639
			c-6.372,0-7.639,7.855-7.639,10.716c0,0.867,0.109,2.099,0.651,2.969c0.58,0.939,1.484,1.447,2.606,1.447
			c1.701,0,3.187-1.122,4.163-2.57c1.376-2.1,1.955-4.924,3.33-11.838C175.262,82.074,174.284,81.639,172.765,81.639z"/>
		<path fill="#95CDE3" d="M184.27,90.869c-0.398,1.847-0.543,2.679-0.543,3.476c0,1.376,0.651,2.569,2.643,2.569
			c0.76,0,3.076-0.181,4.634-2.786c0.903-1.558,1.701-4.706,2.243-7.566c0.399-2.171,0.579-3.547,0.615-4.451
			c0.036-1.051,0.651-2.027,1.665-2.209c0.29-0.036,0.579-0.107,0.833-0.145c0.832-0.145,1.629,0.578,1.376,1.376
			c-0.544,1.917-1.014,3.981-1.63,7.528c-0.904,5.032-1.23,7.457-1.23,8.832c0,0.109,0,0.182,0,0.29
			c0.036,0.941-0.76,1.701-1.701,1.701c-1.05,0-1.881-0.868-1.81-1.882c0.036-0.869,0.362-3.113,0.507-3.909
			c-0.578,0.868-1.63,3.8-3.221,4.923c-1.666,1.158-3.549,1.267-4.055,1.267c-2.389,0-4.489-1.267-4.489-3.909
			c0-0.507,0.071-1.014,0.289-2.354l1.812-9.629c0.144-0.724,0.216-1.303,0.252-1.736c0.073-0.979,0.471-2.063,1.449-2.209
			c0.289-0.036,0.578-0.108,0.867-0.145c0.942-0.218,1.738,0.652,1.484,1.594c-0.434,1.7-0.578,2.352-0.941,4.053L184.27,90.869z"/>
		<path fill="#95CDE3" d="M200.299,86.019c0.361-1.953,0.471-3.185,0.436-4.018c-0.074-0.868,0.325-1.81,1.193-1.918
			c0.361-0.037,0.688-0.073,0.978-0.109c0.905-0.18,1.772,0.471,1.593,1.375c-0.145,0.688-0.76,3.223-1.05,4.743
			c0.832-1.339,2.135-4.381,4.018-5.647c0.76-0.507,1.412-0.797,1.955-0.977c0.867-0.254,1.482,0.688,1.193,1.52
			c-0.361,1.049-1.447,1.629-2.533,1.883c-1.701,0.397-3.765,1.918-4.778,5.539c-0.542,1.917-1.375,6.695-1.556,9.084
			c-0.109,1.05-0.978,1.883-2.026,1.848c-0.074,0-0.109,0-0.182,0c-0.905,0-1.701-0.798-1.447-1.701
			c0.18-0.615,0.361-1.268,0.434-1.811L200.299,86.019z"/>
		<path fill="#95CDE3" d="M225.413,81.133c1.701,1.665,1.773,3.908,1.773,4.995c0,5.646-3.475,13.791-11.295,13.791
			c-1.881,0-3.727-0.543-5.104-1.81c-0.797-0.724-2.062-2.173-2.062-5.61c0-5.829,3.693-13.213,11.367-13.213
			C222.372,79.286,224.218,79.901,225.413,81.133z M222.3,82.58c-0.436-0.397-1.303-0.978-2.752-0.978
			c-5.791,0-7.201,8.471-7.201,11.33c0,3.439,1.809,4.707,3.871,4.707c6.408,0,7.277-9.919,7.277-11.657
			C223.495,85.15,223.458,83.665,222.3,82.58z"/>
		<path fill="#95CDE3" d="M231.126,90.29c-1.014-0.615-2.932-1.773-2.932-4.234c0-2.064,1.195-3.873,2.859-5.141
			c1.846-1.375,4.382-1.629,5.757-1.629c0.941,0,1.629,0.072,2.316,0.254c0.906,0.18,1.303,1.193,0.941,2.026
			c-0.361,0.76-1.303,0.941-2.027,0.579c-0.543-0.253-1.23-0.435-2.098-0.435c-2.755,0-4.274,1.774-4.274,3.222
			c0,1.594,1.34,2.354,2.715,3.114l1.849,1.122c1.014,0.615,2.568,1.592,2.568,3.873c0,1.629-0.723,3.729-2.787,5.249
			c-2.173,1.556-4.562,1.665-6.083,1.665c-1.049,0-1.809-0.073-2.568-0.254c-1.049-0.218-1.557-1.339-1.23-2.353
			c0.254-0.798,1.156-1.014,1.883-0.651c0.688,0.326,1.629,0.578,3.111,0.578c2.861,0,4.382-1.592,4.382-3.076
			c0-1.268-1.015-1.955-2.138-2.607L231.126,90.29z"/>
	</g>
</g>
</svg>
