<?xml version="1.0" encoding="utf-8"?>
<!-- Generator: Adobe Illustrator 16.0.0, SVG Export Plug-In . SVG Version: 6.00 Build 0)  -->
<!DOCTYPE svg PUBLIC "-//W3C//DTD SVG 1.1//EN" "http://www.w3.org/Graphics/SVG/1.1/DTD/svg11.dtd">
<svg version="1.1" id="Layer_1" xmlns="http://www.w3.org/2000/svg" xmlns:xlink="http://www.w3.org/1999/xlink" x="0px" y="0px"
	 width="322.493px" height="146px" viewBox="0 0 322.493 146" enable-background="new 0 0 322.493 146" xml:space="preserve">
<g>
	<g>
		<path fill="#95CDE3" stroke="#95CDE3" stroke-miterlimit="10" d="M163.664,116.371l2.08-1.439
			c0.768,1.952,2.752,2.816,5.056,2.816c2.624,0,3.872-1.057,3.872-2.368c0-1.185-0.992-1.888-4.191-2.464
			c-4.545-0.832-6.208-2.08-6.208-4.768c0-2.592,2.399-4.8,6.304-4.8c3.424,0,5.439,1.216,6.335,3.84l-2.176,1.28
			c-0.704-2.112-2.144-2.881-4.159-2.881c-2.145,0-3.744,1.152-3.744,2.336c0,1.377,1.057,2.08,4.32,2.625
			c4.479,0.735,6.079,2.079,6.079,4.703c0,2.783-2.592,4.735-6.688,4.735C167.6,119.987,164.881,118.836,163.664,116.371z"/>
		<path fill="#95CDE3" stroke="#95CDE3" stroke-miterlimit="10" d="M194.799,112.628h-12.062c0.319,3.231,2.271,5.12,5.215,5.12
			c2.336,0,3.936-0.832,4.512-2.368l2.145,1.12c-1.217,2.176-3.2,3.487-6.656,3.487c-4.832,0-7.743-3.136-7.743-8.319
			s2.72-8.319,7.552-8.319c4.639,0,7.167,3.36,7.167,7.487C194.927,111.572,194.863,112.18,194.799,112.628z M182.768,110.355h9.695
			c-0.352-2.943-1.984-4.768-4.703-4.768C184.912,105.588,183.152,107.348,182.768,110.355z"/>
		<path fill="#95CDE3" stroke="#95CDE3" stroke-miterlimit="10" d="M212.782,121.428c0,3.168-3.583,5.119-7.903,5.119
			c-5.055,0-7.359-1.824-7.359-4.224c0-1.472,1.057-2.624,2.816-3.104c-1.217-0.576-2.176-1.536-2.176-2.944
			c0-1.664,0.992-2.655,2.399-3.135c-1.536-0.961-2.336-2.528-2.336-4.385c0-3.168,2.72-5.407,6.56-5.407
			c1.216,0,2.304,0.224,3.264,0.64c0.607-2.207,2.112-3.264,4.512-3.264l0.576,2.24c-2.144,0-3.36,0.607-3.808,1.76
			c1.279,0.96,2.016,2.367,2.016,4.031c0,3.168-2.72,5.408-6.56,5.408c-0.928,0-1.76-0.096-2.464-0.288
			c-1.28,0.288-1.792,0.928-1.792,2.016c0,1.12,0.864,1.728,2.111,1.728h5.312C210.991,117.619,212.782,119.123,212.782,121.428z
			 M210.415,121.715c0-1.151-0.769-1.887-3.168-1.887h-4.288c-2.016,0-3.071,0.768-3.071,1.983c0,1.567,1.76,2.592,5.279,2.592
			C208.559,124.403,210.415,123.123,210.415,121.715z M200.879,108.756c0,1.984,1.696,3.328,3.904,3.328s3.904-1.344,3.904-3.328
			c0-1.983-1.696-3.327-3.904-3.327S200.879,106.772,200.879,108.756z"/>
		<path fill="#95CDE3" stroke="#95CDE3" stroke-miterlimit="10" d="M229.68,103.668v16h-2.24l-0.16-2.432
			c-1.119,1.919-3.168,2.751-5.728,2.751c-3.168,0-5.888-1.632-5.888-5.855v-10.464h2.561v9.792c0,3.296,1.472,4.288,3.775,4.288
			c2.72,0,5.119-1.6,5.119-5.376v-8.704H229.68z"/>
		<path fill="#95CDE3" stroke="#95CDE3" stroke-miterlimit="10" d="M244.175,103.668l-0.512,2.496
			c-0.48-0.256-1.185-0.416-2.016-0.416c-1.92,0-4.225,1.696-4.225,5.28v8.64h-2.56v-16h2.08l0.352,2.625
			c0.896-1.952,2.624-2.944,5.12-2.944C242.959,103.349,243.695,103.412,244.175,103.668z"/>
		<path fill="#95CDE3" stroke="#95CDE3" stroke-miterlimit="10" d="M261.135,111.668c0,5.184-2.912,8.319-7.743,8.319
			c-4.832,0-7.744-3.136-7.744-8.319s2.912-8.319,7.744-8.319C258.223,103.349,261.135,106.484,261.135,111.668z M248.208,111.668
			c0,3.808,1.951,6.111,5.184,6.111c3.231,0,5.184-2.304,5.184-6.111s-1.952-6.111-5.184-6.111
			C250.159,105.557,248.208,107.86,248.208,111.668z"/>
		<path fill="#95CDE3" stroke="#95CDE3" stroke-miterlimit="10" d="M263.887,116.371l2.08-1.439
			c0.768,1.952,2.751,2.816,5.055,2.816c2.624,0,3.872-1.057,3.872-2.368c0-1.185-0.992-1.888-4.191-2.464
			c-4.544-0.832-6.208-2.08-6.208-4.768c0-2.592,2.4-4.8,6.304-4.8c3.424,0,5.439,1.216,6.336,3.84l-2.176,1.28
			c-0.704-2.112-2.145-2.881-4.16-2.881c-2.144,0-3.743,1.152-3.743,2.336c0,1.377,1.056,2.08,4.319,2.625
			c4.479,0.735,6.079,2.079,6.079,4.703c0,2.783-2.592,4.735-6.688,4.735C267.822,119.987,265.103,118.836,263.887,116.371z"/>
	</g>
</g>
<polygon fill="#E8CB4E" points="284.126,93.522 35.011,93.522 35.011,92.221 284.126,82.174 "/>
<g>
	<path fill="#1C5880" stroke="#1C5880" stroke-width="3" stroke-miterlimit="10" d="M46.079,22.53h3.129
		c1.195,3.094,3.023,7.91,5.484,14.449s4.658,12.316,6.592,17.332s3.838,9.762,5.713,14.238c1.852-4.477,3.768-9.252,5.748-14.326
		s4.184-10.793,6.609-17.156s4.283-11.209,5.572-14.537h3.129L67.595,73.683H66.54L46.079,22.53z"/>
	<path fill="#1C5880" stroke="#1C5880" stroke-width="3" stroke-miterlimit="10" d="M111.425,47.245
		c0-3.188-0.873-5.613-2.619-7.277s-4.307-2.496-7.682-2.496c-1.992,0-4.02,0.264-6.082,0.791s-3.891,1.271-5.484,2.232
		l-1.301-2.496c1.383-0.82,3.322-1.535,5.818-2.145s4.787-0.914,6.873-0.914c4.453,0,7.875,0.996,10.266,2.988
		s3.586,5.32,3.586,9.984v25.734h-2.461l-0.562-6.293c-1.125,1.453-2.309,2.66-3.551,3.621s-2.502,1.658-3.779,2.092
		s-2.438,0.727-3.48,0.879s-2.186,0.229-3.428,0.229c-3.445,0-6.223-0.914-8.332-2.742s-3.164-4.312-3.164-7.453
		c0-3.938,1.389-6.879,4.166-8.824s7.283-2.918,13.518-2.918h0.668l7.031,0.105V47.245z M105.079,70.114
		c2.191-0.996,4.307-2.877,6.346-5.643v-9.809l-6.715-0.07h-0.598c-3.047,0-5.549,0.193-7.506,0.58s-3.445,1.008-4.465,1.863
		s-1.711,1.816-2.074,2.883s-0.545,2.408-0.545,4.025c0,2.508,0.779,4.412,2.338,5.713s3.51,1.951,5.854,1.951
		C100.433,71.608,102.888,71.11,105.079,70.114z"/>
	<path fill="#1C5880" stroke="#1C5880" stroke-width="3" stroke-miterlimit="10" d="M122.009,35.644h2.426l0.352,9.176
		c0.844-2.344,1.951-4.26,3.322-5.748s2.771-2.514,4.201-3.076s2.953-0.844,4.57-0.844c1.195,0,2.18,0.059,2.953,0.176l-0.316,2.566
		c-0.633-0.188-1.359-0.281-2.18-0.281c-2.18,0-4.189,0.639-6.029,1.916s-3.281,2.947-4.324,5.01s-1.564,4.254-1.564,6.574v22.57
		h-3.41V35.644z"/>
	<path fill="#1C5880" stroke="#1C5880" stroke-width="3" stroke-miterlimit="10" d="M169.38,47.245c0-3.188-0.873-5.613-2.619-7.277
		s-4.307-2.496-7.682-2.496c-1.992,0-4.02,0.264-6.082,0.791s-3.891,1.271-5.484,2.232l-1.301-2.496
		c1.383-0.82,3.322-1.535,5.818-2.145s4.787-0.914,6.873-0.914c4.453,0,7.875,0.996,10.266,2.988s3.586,5.32,3.586,9.984v25.734
		h-2.461l-0.562-6.293c-1.125,1.453-2.309,2.66-3.551,3.621s-2.502,1.658-3.779,2.092s-2.438,0.727-3.48,0.879
		s-2.186,0.229-3.428,0.229c-3.445,0-6.223-0.914-8.332-2.742s-3.164-4.312-3.164-7.453c0-3.938,1.389-6.879,4.166-8.824
		s7.283-2.918,13.518-2.918h0.668l7.031,0.105V47.245z M163.034,70.114c2.191-0.996,4.307-2.877,6.346-5.643v-9.809l-6.715-0.07
		h-0.598c-3.047,0-5.549,0.193-7.506,0.58s-3.445,1.008-4.465,1.863s-1.711,1.816-2.074,2.883s-0.545,2.408-0.545,4.025
		c0,2.508,0.779,4.412,2.338,5.713s3.51,1.951,5.854,1.951C158.388,71.608,160.843,71.11,163.034,70.114z"/>
	<path fill="#1C5880" stroke="#1C5880" stroke-width="3" stroke-miterlimit="10" d="M179.929,35.644h2.812l0.492,6.469
		c2.25-4.781,6.504-7.172,12.762-7.172c4.219,0,7.301,1.242,9.246,3.727s2.918,6.41,2.918,11.777v23.238h-3.445V48.687
		c0.023-3.68-0.627-6.48-1.951-8.402s-3.615-2.883-6.873-2.883c-1.945,0-3.674,0.252-5.186,0.756s-2.719,1.166-3.621,1.986
		s-1.641,1.799-2.215,2.936s-0.967,2.273-1.178,3.41s-0.316,2.35-0.316,3.639v23.555h-3.445V35.644z"/>
	<path fill="#1C5880" stroke="#1C5880" stroke-width="3" stroke-miterlimit="10" d="M245.427,18.839v54.844h-2.707l-0.316-6.188
		c-1.242,2.156-3.029,3.844-5.361,5.062s-4.975,1.828-7.928,1.828c-5.039,0-9.023-1.793-11.953-5.379s-4.395-8.449-4.395-14.59
		c0-5.977,1.506-10.717,4.518-14.221s7.096-5.256,12.252-5.256c3.023,0,5.637,0.609,7.84,1.828s3.832,2.93,4.887,5.133l-0.281-9.703
		V19.542L245.427,18.839z M237.112,69.763c2.309-1.441,3.943-3.393,4.904-5.854V46.261c-1.125-2.93-2.771-5.139-4.939-6.627
		s-4.67-2.232-7.506-2.232c-4.102,0-7.354,1.529-9.756,4.588s-3.604,7.213-3.604,12.463c0,5.367,1.154,9.621,3.463,12.762
		s5.455,4.711,9.439,4.711C232.138,71.925,234.804,71.204,237.112,69.763z"/>
	<path fill="#1C5880" stroke="#1C5880" stroke-width="3" stroke-miterlimit="10" d="M275.839,47.245
		c0-3.188-0.873-5.613-2.619-7.277s-4.307-2.496-7.682-2.496c-1.992,0-4.02,0.264-6.082,0.791s-3.891,1.271-5.484,2.232
		l-1.301-2.496c1.383-0.82,3.322-1.535,5.818-2.145s4.787-0.914,6.873-0.914c4.453,0,7.875,0.996,10.266,2.988
		s3.586,5.32,3.586,9.984v25.734h-2.461l-0.562-6.293c-1.125,1.453-2.309,2.66-3.551,3.621s-2.502,1.658-3.779,2.092
		s-2.438,0.727-3.48,0.879s-2.186,0.229-3.428,0.229c-3.445,0-6.223-0.914-8.332-2.742s-3.164-4.312-3.164-7.453
		c0-3.938,1.389-6.879,4.166-8.824s7.283-2.918,13.518-2.918h0.668l7.031,0.105V47.245z M269.493,70.114
		c2.191-0.996,4.307-2.877,6.346-5.643v-9.809l-6.715-0.07h-0.598c-3.047,0-5.549,0.193-7.506,0.58s-3.445,1.008-4.465,1.863
		s-1.711,1.816-2.074,2.883s-0.545,2.408-0.545,4.025c0,2.508,0.779,4.412,2.338,5.713s3.51,1.951,5.854,1.951
		C264.847,71.608,267.302,71.11,269.493,70.114z"/>
</g>
</svg>
