<?xml version="1.0" encoding="UTF-8" standalone="no"?>
<svg
   xmlns:dc="http://purl.org/dc/elements/1.1/"
   xmlns:cc="http://creativecommons.org/ns#"
   xmlns:rdf="http://www.w3.org/1999/02/22-rdf-syntax-ns#"
   xmlns:svg="http://www.w3.org/2000/svg"
   xmlns="http://www.w3.org/2000/svg"
   viewBox="0 0 270 102.66667"
   height="102.66667"
   width="270"
   xml:space="preserve"
   id="svg2"
   version="1.1"><metadata
     id="metadata8"><rdf:RDF><cc:Work
         rdf:about=""><dc:format>image/svg+xml</dc:format><dc:type
           rdf:resource="http://purl.org/dc/dcmitype/StillImage" /></cc:Work></rdf:RDF></metadata><defs
     id="defs6"><clipPath
       id="clipPath18"
       clipPathUnits="userSpaceOnUse"><path
         id="path16"
         d="M 0,77 H 202.5 V 0 H 0 Z" /></clipPath></defs><g
     transform="matrix(1.3333333,0,0,-1.3333333,0,102.66667)"
     id="g10"><g
       id="g12"><g
         clip-path="url(#clipPath18)"
         id="g14"><g
           transform="translate(12.4693,59.4296)"
           id="g20"><path
             id="path22"
             style="fill:#231f20;fill-opacity:1;fill-rule:evenodd;stroke:none"
             d="m 0,0 0.028,-7.016 c 1.036,-0.077 3.76,0.038 4.594,0.047 C 8.813,-6.921 8.904,-0.103 4.787,0 Z M -6.417,4.855 6.44,4.731 c 3.843,-0.036 6.977,-2.775 7.183,-7.139 0.206,-4.365 -2.099,-9.139 -9.31,-9.382 L 0,-11.792 -0.06,-20.417 h -6.263 z" /></g><g
           transform="translate(40.5975,59.4296)"
           id="g24"><path
             id="path26"
             style="fill:#231f20;fill-opacity:1;fill-rule:evenodd;stroke:none"
             d="m 0,0 c 4.828,0 7.386,-3.75 7.386,-8.375 0,-4.624 -2.439,-8.255 -7.386,-8.375 -4.947,-0.118 -7.444,3.751 -7.444,8.375 C -7.444,-3.75 -4.829,0 0,0 m -0.03,5.032 c 7.652,0 13.857,-6.004 13.857,-13.407 0,-7.402 -6.205,-13.404 -13.857,-13.404 -7.651,0 -13.858,6.002 -13.858,13.404 0,7.403 6.207,13.407 13.858,13.407" /></g><g
           transform="translate(112.1723,60.0233)"
           id="g28"><path
             id="path30"
             style="fill:#231f20;fill-opacity:1;fill-rule:evenodd;stroke:none"
             d="M 0,0 C 4.83,0 7.387,-3.752 7.387,-8.376 7.387,-13 4.948,-16.633 0,-16.751 -4.947,-16.87 -7.446,-13 -7.446,-8.376 -7.446,-3.752 -4.829,0 0,0 m -0.029,5.03 c 7.651,0 13.857,-6.005 13.857,-13.407 0,-7.403 -6.206,-13.405 -13.857,-13.405 -7.652,0 -13.859,6.002 -13.859,13.405 0,7.402 6.207,13.407 13.859,13.407" /></g><g
           transform="translate(62.4877,59.5465)"
           id="g32"><path
             id="path34"
             style="fill:#231f20;fill-opacity:1;fill-rule:evenodd;stroke:none"
             d="M 0,0 V -7.062 C 1.035,-7.14 3.76,-7.11 4.594,-7.102 8.786,-7.053 8.905,-0.106 4.788,0 Z M -6.444,4.797 6.413,4.675 c 3.843,-0.037 6.973,-2.784 7.181,-7.158 0.146,-3.079 -0.955,-6.054 -4.135,-7.629 l 0.029,-0.018 8.333,-10.465 -8.274,0.062 -6.749,9.26 -2.827,-0.02 -0.059,-9.24 h -6.264 z" /></g><g
           transform="translate(77.1752,64.3129)"
           id="g36"><path
             id="path38"
             style="fill:#231f20;fill-opacity:1;fill-rule:evenodd;stroke:none"
             d="M 0,0 H 22.16 V -5.445 H 14.3 V -25.331 H 7.918 V -5.445 H 0 Z" /></g><g
           transform="translate(113.0848,29.4668)"
           id="g40"><path
             id="path42"
             style="fill:#231f20;fill-opacity:1;fill-rule:evenodd;stroke:none"
             d="m 0,0 c 4.067,0 6.221,-3.157 6.221,-7.052 0,-3.894 -2.054,-6.954 -6.221,-7.051 -4.166,-0.101 -6.27,3.157 -6.27,7.051 C -6.27,-3.157 -4.063,0 0,0 m -0.026,4.237 c 6.445,0 11.672,-5.056 11.672,-11.289 0,-6.232 -5.227,-11.289 -11.672,-11.289 -6.442,0 -11.667,5.057 -11.667,11.289 0,6.233 5.225,11.289 11.667,11.289" /></g><g
           transform="translate(88.4057,29.3526)"
           id="g44"><path
             id="path46"
             style="fill:#231f20;fill-opacity:1;fill-rule:evenodd;stroke:none"
             d="M 0,0 V -6.202 C 0.911,-6.271 3.305,-6.246 4.036,-6.239 7.718,-6.195 7.824,-0.094 4.207,0 Z M -5.657,4.213 5.634,4.107 C 9.009,4.075 11.761,1.663 11.941,-2.179 12.07,-4.885 11.103,-7.497 8.309,-8.882 l 0.027,-0.017 7.32,-9.189 -7.267,0.053 -5.932,8.134 -2.48,-0.018 -0.052,-8.116 h -5.503 z" /></g><g
           transform="translate(19.4217,27.5962)"
           id="g48"><path
             id="path50"
             style="fill:#231f20;fill-opacity:1;fill-rule:evenodd;stroke:none"
             d="m 0,0 2.068,4.291 c 0,0 -5.082,2.872 -10.105,1.512 -5.024,-1.363 -6.945,-7.991 -2.691,-10.922 4.256,-2.93 7.659,-2.294 7.387,-4.852 -0.388,-3.66 -6.625,-1.273 -9.398,-0.031 l -1.623,-4.439 c 0,0 2.54,-1.597 7.18,-2.042 4.64,-0.444 9.113,2.101 9.277,6.63 C 2.369,-2.239 -9.457,-3.89 -7.314,0.543 -6.378,2.476 -2.779,1.345 0,0" /></g><g
           transform="translate(37.8857,33.0402)"
           id="g52"><path
             id="path54"
             style="fill:#231f20;fill-opacity:1;fill-rule:evenodd;stroke:none"
             d="m 0,0 v -4.676 h -8.686 v -3.396 h 7.918 v -4.677 h -7.918 v -3.808 H 0.65 v -4.675 l -14.89,-0.019 V 0 Z" /></g><g
           transform="translate(56.7375,27.7318)"
           id="g56"><path
             id="path58"
             style="fill:#231f20;fill-opacity:1;fill-rule:evenodd;stroke:none"
             d="m 0,0 c -7.284,3.022 -11.93,-0.911 -12.387,-5.028 -0.428,-3.87 2.882,-7.9 9.816,-6.483 l -0.032,7.485 H 2.834 L 2.807,-14.117 c -8.952,-5.623 -20.747,-0.605 -20.456,8.598 0.398,12.453 14.222,12.858 19.657,9.72 z" /></g><g
           transform="translate(66.7241,33.5031)"
           id="g60"><path
             id="path62"
             style="fill:#231f20;fill-opacity:1;fill-rule:evenodd;stroke:none"
             d="M 0,0 -5.437,0.061 V -13.08 c -0.11,-6.181 4.917,-9.169 9.955,-9.154 5.061,0.01 10.13,3.049 10.022,9.154 V 0.061 L 9.103,0 9.073,-12.813 C 9.157,-15.948 7.52,-17.4 4.55,-17.4 c -2.969,0 -4.606,1.452 -4.522,4.587 z" /></g><g
           transform="translate(136.9725,67.2141)"
           id="g64"><path
             id="path66"
             style="fill:#3ab6e7;fill-opacity:1;fill-rule:evenodd;stroke:none"
             d="m 0,0 h 55.011 c 1.246,0 2.266,-1.02 2.266,-2.266 v -53.78 c 0,-1.247 -1.02,-2.266 -2.266,-2.266 H 0 c -1.246,0 -2.266,1.019 -2.266,2.266 v 53.78 C -2.266,-1.02 -1.246,0 0,0" /></g><g
           transform="translate(138.0054,63.4376)"
           id="g68"><path
             id="path70"
             style="fill:#ffffff;fill-opacity:1;fill-rule:evenodd;stroke:none"
             d="m 0,0 c 2.081,0.1 27.347,0.995 41.849,-13.29 0,0 -11.513,8.644 -37.476,4.811 C 3.085,-5.118 1.585,-2.295 0,0" /></g><g
           transform="translate(186.5905,40.6532)"
           id="g72"><path
             id="path74"
             style="fill:#ffffff;fill-opacity:1;fill-rule:evenodd;stroke:none"
             d="m 0,0 c -7.847,8.875 -33.251,4.528 -41.084,2.354 -0.493,3.073 -1.149,5.885 -1.927,8.443 C -37.347,11.662 -5.005,15.871 0,0" /></g><g
           transform="translate(146.0354,39.0043)"
           id="g76"><path
             id="path78"
             style="fill:#ffffff;fill-opacity:1;fill-rule:evenodd;stroke:none"
             d="M 0,0 C 6.168,1.701 40.977,10.519 44.462,-6.096 33.486,1.266 7.285,-6.984 0.393,-9.537 0.458,-7.443 0.417,-5.205 0.249,-2.812 0.182,-1.854 0.096,-0.919 0,0" /></g><g
           transform="translate(146.0871,24.8461)"
           id="g80"><path
             id="path82"
             style="fill:#ffffff;fill-opacity:1;fill-rule:evenodd;stroke:none"
             d="M 0,0 C 14.848,6.156 61.079,17.749 40.836,-7.927 45.203,0.175 42.693,1.228 36.76,0.906 25.425,0.289 2.049,-9.655 -3.698,-12.473 -1.98,-9.321 -0.623,-5.209 0,0" /></g></g></g></g></svg>